<mxfile host="app.diagrams.net" agent="Mozilla/5.0 (Windows NT 10.0; Win64; x64) AppleWebKit/537.36 (KHTML, like Gecko) Chrome/133.0.0.0 Safari/537.36 Edg/133.0.0.0" version="26.0.16">
  <diagram name="Pagina-1" id="QwmGnS9-fZA-8RNdgStZ">
    <mxGraphModel dx="1042" dy="565" grid="1" gridSize="10" guides="1" tooltips="1" connect="1" arrows="1" fold="1" page="1" pageScale="1" pageWidth="827" pageHeight="1169" math="0" shadow="0">
      <root>
        <mxCell id="0" />
        <mxCell id="1" parent="0" />
        <mxCell id="AZ-DMNiLDy1ydZZ7lLKW-1" value="User" style="shape=umlActor;verticalLabelPosition=bottom;verticalAlign=top;html=1;outlineConnect=0;" vertex="1" parent="1">
          <mxGeometry x="110" y="180" width="30" height="60" as="geometry" />
        </mxCell>
        <mxCell id="AZ-DMNiLDy1ydZZ7lLKW-2" value="Compute&amp;nbsp; idealBodyWeight" style="ellipse;whiteSpace=wrap;html=1;" vertex="1" parent="1">
          <mxGeometry x="230" y="50" width="120" height="80" as="geometry" />
        </mxCell>
        <mxCell id="AZ-DMNiLDy1ydZZ7lLKW-3" value="Compute&amp;nbsp; basalMetabolicRate" style="ellipse;whiteSpace=wrap;html=1;" vertex="1" parent="1">
          <mxGeometry x="230" y="170" width="120" height="80" as="geometry" />
        </mxCell>
        <mxCell id="AZ-DMNiLDy1ydZZ7lLKW-6" value="" style="endArrow=none;html=1;rounded=0;" edge="1" parent="1" target="AZ-DMNiLDy1ydZZ7lLKW-2">
          <mxGeometry width="50" height="50" relative="1" as="geometry">
            <mxPoint x="140" y="190" as="sourcePoint" />
            <mxPoint x="440" y="270" as="targetPoint" />
          </mxGeometry>
        </mxCell>
        <mxCell id="AZ-DMNiLDy1ydZZ7lLKW-7" value="" style="endArrow=none;html=1;rounded=0;entryX=0.007;entryY=0.6;entryDx=0;entryDy=0;entryPerimeter=0;" edge="1" parent="1" target="AZ-DMNiLDy1ydZZ7lLKW-3">
          <mxGeometry width="50" height="50" relative="1" as="geometry">
            <mxPoint x="150" y="210" as="sourcePoint" />
            <mxPoint x="440" y="270" as="targetPoint" />
          </mxGeometry>
        </mxCell>
        <mxCell id="AZ-DMNiLDy1ydZZ7lLKW-15" value="" style="swimlane;startSize=0;" vertex="1" parent="1">
          <mxGeometry x="170" y="10" width="590" height="540" as="geometry" />
        </mxCell>
        <mxCell id="AZ-DMNiLDy1ydZZ7lLKW-16" value="HealthCalculatorExtended" style="text;html=1;align=center;verticalAlign=middle;whiteSpace=wrap;rounded=0;" vertex="1" parent="AZ-DMNiLDy1ydZZ7lLKW-15">
          <mxGeometry x="480" width="70" height="10" as="geometry" />
        </mxCell>
        <mxCell id="AZ-DMNiLDy1ydZZ7lLKW-4" value="Compute bodyMassWeight" style="ellipse;whiteSpace=wrap;html=1;" vertex="1" parent="AZ-DMNiLDy1ydZZ7lLKW-15">
          <mxGeometry x="60" y="300" width="120" height="80" as="geometry" />
        </mxCell>
        <mxCell id="AZ-DMNiLDy1ydZZ7lLKW-5" value="Compute bodyFatPercentage" style="ellipse;whiteSpace=wrap;html=1;" vertex="1" parent="AZ-DMNiLDy1ydZZ7lLKW-15">
          <mxGeometry x="160" y="440" width="120" height="80" as="geometry" />
        </mxCell>
        <mxCell id="AZ-DMNiLDy1ydZZ7lLKW-8" value="" style="endArrow=none;html=1;rounded=0;entryX=0;entryY=0.5;entryDx=0;entryDy=0;" edge="1" parent="AZ-DMNiLDy1ydZZ7lLKW-15" target="AZ-DMNiLDy1ydZZ7lLKW-4">
          <mxGeometry width="50" height="50" relative="1" as="geometry">
            <mxPoint x="-20" y="230" as="sourcePoint" />
            <mxPoint x="270" y="260" as="targetPoint" />
          </mxGeometry>
        </mxCell>
        <mxCell id="AZ-DMNiLDy1ydZZ7lLKW-9" value="" style="endArrow=none;html=1;rounded=0;entryX=-0.013;entryY=0.425;entryDx=0;entryDy=0;entryPerimeter=0;" edge="1" parent="AZ-DMNiLDy1ydZZ7lLKW-15" target="AZ-DMNiLDy1ydZZ7lLKW-5">
          <mxGeometry width="50" height="50" relative="1" as="geometry">
            <mxPoint x="-30" y="260" as="sourcePoint" />
            <mxPoint x="50" y="430" as="targetPoint" />
          </mxGeometry>
        </mxCell>
        <mxCell id="AZ-DMNiLDy1ydZZ7lLKW-10" value="" style="endArrow=none;dashed=1;html=1;rounded=0;entryX=0.647;entryY=1.04;entryDx=0;entryDy=0;entryPerimeter=0;exitX=0.653;exitY=0.03;exitDx=0;exitDy=0;exitPerimeter=0;" edge="1" parent="AZ-DMNiLDy1ydZZ7lLKW-15" source="AZ-DMNiLDy1ydZZ7lLKW-12">
          <mxGeometry width="50" height="50" relative="1" as="geometry">
            <mxPoint x="220" y="310" as="sourcePoint" />
            <mxPoint x="137.6400000000001" y="243.20000000000005" as="targetPoint" />
          </mxGeometry>
        </mxCell>
        <mxCell id="AZ-DMNiLDy1ydZZ7lLKW-11" value="&amp;lt;&amp;lt;Includes&amp;gt;&amp;gt;" style="text;html=1;align=center;verticalAlign=middle;whiteSpace=wrap;rounded=0;" vertex="1" parent="AZ-DMNiLDy1ydZZ7lLKW-15">
          <mxGeometry x="70" y="259" width="60" height="30" as="geometry" />
        </mxCell>
        <mxCell id="AZ-DMNiLDy1ydZZ7lLKW-13" value="" style="endArrow=none;dashed=1;html=1;rounded=0;entryX=0;entryY=0.5;entryDx=0;entryDy=0;exitX=0.653;exitY=0.03;exitDx=0;exitDy=0;exitPerimeter=0;" edge="1" parent="AZ-DMNiLDy1ydZZ7lLKW-15" source="AZ-DMNiLDy1ydZZ7lLKW-4" target="AZ-DMNiLDy1ydZZ7lLKW-12">
          <mxGeometry width="50" height="50" relative="1" as="geometry">
            <mxPoint x="138" y="282" as="sourcePoint" />
            <mxPoint x="138" y="243" as="targetPoint" />
          </mxGeometry>
        </mxCell>
        <mxCell id="AZ-DMNiLDy1ydZZ7lLKW-12" value="" style="triangle;whiteSpace=wrap;html=1;rotation=-90;" vertex="1" parent="AZ-DMNiLDy1ydZZ7lLKW-15">
          <mxGeometry x="130" y="240" width="10" height="10" as="geometry" />
        </mxCell>
        <mxCell id="AZ-DMNiLDy1ydZZ7lLKW-14" style="edgeStyle=orthogonalEdgeStyle;rounded=0;orthogonalLoop=1;jettySize=auto;html=1;exitX=0.5;exitY=1;exitDx=0;exitDy=0;" edge="1" parent="AZ-DMNiLDy1ydZZ7lLKW-15" source="AZ-DMNiLDy1ydZZ7lLKW-11" target="AZ-DMNiLDy1ydZZ7lLKW-11">
          <mxGeometry relative="1" as="geometry" />
        </mxCell>
        <mxCell id="AZ-DMNiLDy1ydZZ7lLKW-18" value="&amp;lt;&amp;lt;Includes&amp;gt;&amp;gt;" style="text;html=1;align=center;verticalAlign=middle;whiteSpace=wrap;rounded=0;" vertex="1" parent="AZ-DMNiLDy1ydZZ7lLKW-15">
          <mxGeometry x="210" y="324.5" width="60" height="30" as="geometry" />
        </mxCell>
        <mxCell id="AZ-DMNiLDy1ydZZ7lLKW-21" style="edgeStyle=orthogonalEdgeStyle;rounded=0;orthogonalLoop=1;jettySize=auto;html=1;exitX=0.5;exitY=1;exitDx=0;exitDy=0;" edge="1" source="AZ-DMNiLDy1ydZZ7lLKW-18" parent="AZ-DMNiLDy1ydZZ7lLKW-15">
          <mxGeometry relative="1" as="geometry">
            <mxPoint x="240" y="354.5" as="targetPoint" />
          </mxGeometry>
        </mxCell>
        <mxCell id="AZ-DMNiLDy1ydZZ7lLKW-23" value="" style="endArrow=none;dashed=1;html=1;rounded=0;exitX=1;exitY=0.5;exitDx=0;exitDy=0;" edge="1" parent="1" source="AZ-DMNiLDy1ydZZ7lLKW-3">
          <mxGeometry width="50" height="50" relative="1" as="geometry">
            <mxPoint x="390" y="290" as="sourcePoint" />
            <mxPoint x="350" y="210" as="targetPoint" />
          </mxGeometry>
        </mxCell>
        <mxCell id="AZ-DMNiLDy1ydZZ7lLKW-24" value="" style="endArrow=none;dashed=1;html=1;rounded=0;entryX=0.987;entryY=0.6;entryDx=0;entryDy=0;entryPerimeter=0;" edge="1" parent="1" source="AZ-DMNiLDy1ydZZ7lLKW-26" target="AZ-DMNiLDy1ydZZ7lLKW-3">
          <mxGeometry width="50" height="50" relative="1" as="geometry">
            <mxPoint x="480" y="290" as="sourcePoint" />
            <mxPoint x="530" y="240" as="targetPoint" />
            <Array as="points" />
          </mxGeometry>
        </mxCell>
        <mxCell id="AZ-DMNiLDy1ydZZ7lLKW-27" value="" style="endArrow=none;dashed=1;html=1;rounded=0;entryX=0.987;entryY=0.6;entryDx=0;entryDy=0;entryPerimeter=0;" edge="1" parent="1" source="AZ-DMNiLDy1ydZZ7lLKW-5" target="AZ-DMNiLDy1ydZZ7lLKW-26">
          <mxGeometry width="50" height="50" relative="1" as="geometry">
            <mxPoint x="384" y="450" as="sourcePoint" />
            <mxPoint x="348" y="218" as="targetPoint" />
            <Array as="points" />
          </mxGeometry>
        </mxCell>
        <mxCell id="AZ-DMNiLDy1ydZZ7lLKW-26" value="" style="triangle;whiteSpace=wrap;html=1;rotation=-90;" vertex="1" parent="1">
          <mxGeometry x="340" y="220" width="10" height="10" as="geometry" />
        </mxCell>
      </root>
    </mxGraphModel>
  </diagram>
</mxfile>
